 http://www.torrentday.com - Your Key To The Scene.

 
http://www.torrentday.com :  Clean RAR Scene Releases!


Enjoy =)

...................................NFO:....................................

.[img]http://leetleech.org/images/54440481531756672658.jpg[/img]

8888888888       888            888888      888888888    888888888888      888888
888       88     888           888   888          888        888         888    888
888       88     888          888     888        888         888        888      888
8888888888       888          88888888888       888          888       888        888
888       88     888          888     888      888           888       888        888
888       88     888          888     888     888            888       888        888
8888888888       88888888888  888     888    888888888    88888888888  888        888

                                Proudly Presents!!!
---------------------------------------------------------------------------------------
                 The.End.Of.The.Line.2009.LIMITED.DVDRip.XviD.AC3-BLAZiN
---------------------------------------------------------------------------------------
Rip Date......: 03/19/10                 Video Data......: 2 179 kbps QF=0.253
Retail Date...: 02/23/10                 CodeC...........: XviD AVI
File Size.....: 1.37 GB                  Resolution......: 720 x 400
Ripper........: Emery                    Aspect Ratio....: 16:9
Language......: English                  Audio Data......: AC3 192 kbps
                                 
IMDB

Link......: http://www.imdb.com/title/tt1176727/
Ratings...: 6.9/10   153 votes
Genre.....: Documentary 
Tagline...: N/A
Director..: Rupert Murray

Plot

Humans have long regarded the world's oceans
as vast and inexhaustible. Now, we have learned otherwise.

---------------------------------------------------------------------------------------
                                   Video Data
---------------------------------------------------------------------------------------
General
Complete name                    : thendofthelinedvdrip-blazin.avi
Format                           : AVI
Format/Info                      : Audio Video Interleave
File size                        : 1.37 GiB
Duration                         : 1h 22mn
Overall bit rate                 : 2 383 Kbps
Writing application              : VirtualDubMod 1.5.10.2 (build 2540/release)
Writing library                  : VirtualDubMod build 2540/release

Video
ID                               : 0
Format                           : MPEG-4 Visual
Format profile                   : AdvancedSimple@L5
Format settings, BVOP            : Yes
Format settings, QPel            : No
Format settings, GMC             : No warppoints
Format settings, Matrix          : Default (H.263)
Muxing mode                      : Packed bitstream
Codec ID                         : XVID
Codec ID/Hint                    : XviD
Duration                         : 1h 22mn
Bit rate                         : 2 179 Kbps
Width                            : 720 pixels
Height                           : 400 pixels
Display aspect ratio             : 16:9
Frame rate                       : 29.970 fps
Resolution                       : 24 bits
Colorimetry                      : 4:2:0
Scan type                        : Progressive
Bits/(Pixel*Frame)               : 0.253
Stream size                      : 1.25 GiB (91%)
Writing library                  : XviD 1.2.1 (UTC 2008-12-04)

---------------------------------------------------------------------------------------
                                   Audio Data
---------------------------------------------------------------------------------------
Audio
ID                               : 1
Format                           : AC-3
Format/Info                      : Audio Coding 3
Codec ID                         : 2000
Duration                         : 1h 22mn
Bit rate mode                    : Constant
Bit rate                         : 192 Kbps
Channel(s)                       : 2 channels
Channel positions                : L R
Sampling rate                    : 48.0 KHz
Stream size                      : 113 MiB (8%)
Alignment                        : Split accross interleaves
Interleave, duration             : 33 ms (1.00 video frame)
Interleave, preload duration     : 500 ms

---------------------------------------------------------------------------------------
                                     Notes
---------------------------------------------------------------------------------------
Video Source.........: HNRDVD
Audio Source.........: HNRDVD

Here is my go at this encode; thanks to HNRDVD for source left original AC3 audio
on enjoy.

Looking For:
--Experienced Syncers
--Encoders new or experienced
--Creative ACII nfo creators
--Sources of R5 dvds
--R1 Pal or NTSC dvd sources
--Direct/Line audio sources
--Bluray sources
--cam video/audio

If you can provide us with any of these things, email us @ BLAZiN.RG@hushmail.com

BLAZiN is a new release group always looking for new and or experienced encoders.
trying to provide you with the latest releases. Our main and number one goal is
Quality over Speed!

---------------------------------------------------------------------------------------
                                 Screenshots
---------------------------------------------------------------------------------------
[img]http://leetleech.org/images/76992233245068135183.jpg[/img]
[img]http://leetleech.org/images/99481285232516623068.jpg[/img]
[img]http://leetleech.org/images/27499088483451239336.jpg[/img]
[img]http://leetleech.org/images/68597948651942556062.jpg[/img]
[img]http://leetleech.org/images/10334210130179491979.jpg[/img]
[img]http://leetleech.org/images/76707317971953845420.jpg[/img]

---------------------------------------------------------------------------------------
                                   Greets
---------------------------------------------------------------------------------------
-- ExtraScene RG -- Rx -- SANTi -- Noir -- X -- BlackJesus -- Wrath -- Rok3r -- stuffies
-- IMAGiNE -- Taffy -- Earth -- Emery -- Prism -- Madd Skillz --